# xmcd CD database file
#
# Track frame offsets:
#	150
#	10257
#	22372
#	33035
#	43130
#	52785
#	65540
#	74802
#	84615
#	95222
#	106037
#	117010
#	122570
#	133540
#	140977
#	151950
#	161597
#	172630
#	181840
#	195360
#	206680
#	221367
#
# Disc length: 3099 seconds
#
# Revision: 3
# Processed by: cddbd v1.5.2PL0 Copyright (c) Steve Scherf et al.
# Submitted via: jetAudio 7
#
DISCID=300c1916
DTITLE=Chet Atkins - Chet Atkins And His Guitar and The Guitar Genius
DYEAR=1900
DGENRE=Blues
TTITLE0=The Bells Of St. Mary's
TTITLE1=Centipede Boogie
TTITLE2=Darling, Je Vous Aime Beaucoup
TTITLE3=Rubber Doll Rag
TTITLE4=Peek-A-Boo Moon
TTITLE5=Barber Shop Rag
TTITLE6=Kentucky Derby
TTITLE7=Mountain Melody
TTITLE8=High Rockin' Swing
TTITLE9=Dill Pickles Rag
TTITLE10=Stephen Foster Medley
TTITLE11=Walkin' On Strings
TTITLE12=Heartbreak Hotel
TTITLE13=Swanee River
TTITLE14=Blackjack
TTITLE15=I'll Be With You In Apple Blossom Time
TTITLE16=Daar's 'N Wind Wat Waat
TTITLE17=It's Now Or Never
TTITLE18=Out Of Nowhere
TTITLE19=Hidden Charm
TTITLE20=Even Tho'
TTITLE21=When Day Is Done
EXTD=
EXTT0=
EXTT1=
EXTT2=
EXTT3=
EXTT4=
EXTT5=
EXTT6=
EXTT7=
EXTT8=
EXTT9=
EXTT10=
EXTT11=
EXTT12=
EXTT13=
EXTT14=
EXTT15=
EXTT16=
EXTT17=
EXTT18=
EXTT19=
EXTT20=
EXTT21=
PLAYORDER=
